# xmcd
#
# Track frame offsets: 
#        150
#        10520
#        22846
#        35903
#        50979
#        62842
#        72632
#        84183
#        94750
#        105773
#        117305
#        126130
#        136765
#        147628
#        160541
#        171266
#
# Disc length: 2454 seconds
#
# Revision: 7
# Processed by: cddbd v1.5.2PL0 Copyright (c) Steve Scherf et al.
# Submitted via: ExactAudioCopyFreeDBPlugin 1.0
#
DISCID=d4099410
DTITLE=Kenny Rogers and Dolly Parton - 1999 - Favourites
DYEAR=1999
DGENRE=Country
TTITLE0=Dolly Parton - Put it Off Untill Tomorrow
TTITLE1=Kenny Rogers - Reuben James
TTITLE2=Dolly Parton - Daddy Wont Be Here Anymore
TTITLE3=Kenny Rogers - For the Good Times
TTITLE4=Dolly Parton - Ive Lived My Life
TTITLE5=Kenny Rogers - Where Does Rosie Go
TTITLE6=Dolly Parton - Im Not Worth the Tears
TTITLE7=Kenny Rogers - We All Got to Help Each Other
TTITLE8=Dolly Parton - The Giving and Thanking
TTITLE9=Kenny Rogers - Poem for My Little Lady
TTITLE10=Dolly Parton - Hillybilly Willy
TTITLE11=Kenny Rogers - She Even Woke Me Up to Say Goodbye
TTITLE12=Dolly Parton - I Couldnt Wait Forever
TTITLE13=Kenny Rogers - Sleep Comes Easy
TTITLE14=Dolly Parton - Too Lonely Too Long
TTITLE15=Kenny Rogers - Ruby Dont Take Your Love to Town
EXTD=
EXTT0=
EXTT1=
EXTT2=
EXTT3=
EXTT4=
EXTT5=
EXTT6=
EXTT7=
EXTT8=
EXTT9=
EXTT10=
EXTT11=
EXTT12=
EXTT13=
EXTT14=
EXTT15=
PLAYORDER=
